<svg height="814" width="720" xmlns="http://www.w3.org/2000/svg">
<rect height="814" fill="#555" width="720"></rect>
<text fill="#7f7" font-family="Courier New" font-size="12" xml:space="preserve">
<tspan x="10" y="26">6 megabytes installed</tspan>
<tspan x="10" y="42"></tspan>
<tspan x="10" y="58">node_modules</tspan>
<tspan x="10" y="74">└─┬ amazon-reviews@0.0.4 </tspan>
<tspan x="10" y="90">  ├── async@0.2.10 </tspan>
<tspan x="10" y="106">  ├─┬ cheerio@0.14.0 </tspan>
<tspan x="10" y="122">  │ ├─┬ CSSselect@0.4.1 </tspan>
<tspan x="10" y="138">  │ │ ├── CSSwhat@0.4.7 </tspan>
<tspan x="10" y="154">  │ │ └── domutils@1.4.3 </tspan>
<tspan x="10" y="170">  │ ├── entities@1.0.0 </tspan>
<tspan x="10" y="186">  │ ├─┬ htmlparser2@3.7.3 </tspan>
<tspan x="10" y="202">  │ │ ├── domelementtype@1.3.0 </tspan>
<tspan x="10" y="218">  │ │ ├── domhandler@2.2.1 </tspan>
<tspan x="10" y="234">  │ │ ├─┬ domutils@1.5.1 </tspan>
<tspan x="10" y="250">  │ │ │ └─┬ dom-serializer@0.1.0 </tspan>
<tspan x="10" y="266">  │ │ │   ├── domelementtype@1.1.3 </tspan>
<tspan x="10" y="282">  │ │ │   └── entities@1.1.1 </tspan>
<tspan x="10" y="298">  │ │ └─┬ readable-stream@1.1.14 </tspan>
<tspan x="10" y="314">  │ │   ├── core-util-is@1.0.2 </tspan>
<tspan x="10" y="330">  │ │   ├── inherits@2.0.3 </tspan>
<tspan x="10" y="346">  │ │   ├── isarray@0.0.1 </tspan>
<tspan x="10" y="362">  │ │   └── string_decoder@0.10.31 </tspan>
<tspan x="10" y="378">  │ └── lodash@2.4.2 </tspan>
<tspan x="10" y="394">  ├─┬ coffee-script@1.7.1 </tspan>
<tspan x="10" y="410">  │ └── mkdirp@0.3.5 </tspan>
<tspan x="10" y="426">  └─┬ request@2.34.0 </tspan>
<tspan x="10" y="442">    ├── aws-sign2@0.5.0 </tspan>
<tspan x="10" y="458">    ├── forever-agent@0.5.2 </tspan>
<tspan x="10" y="474">    ├─┬ form-data@0.1.4 </tspan>
<tspan x="10" y="490">    │ ├── async@0.9.2 </tspan>
<tspan x="10" y="506">    │ └─┬ combined-stream@0.0.7 </tspan>
<tspan x="10" y="522">    │   └── delayed-stream@0.0.5 </tspan>
<tspan x="10" y="538">    ├─┬ hawk@1.0.0 </tspan>
<tspan x="10" y="554">    │ ├── boom@0.4.2 </tspan>
<tspan x="10" y="570">    │ ├── cryptiles@0.2.2 </tspan>
<tspan x="10" y="586">    │ ├── hoek@0.9.1 </tspan>
<tspan x="10" y="602">    │ └── sntp@0.2.4 </tspan>
<tspan x="10" y="618">    ├─┬ http-signature@0.10.1 </tspan>
<tspan x="10" y="634">    │ ├── asn1@0.1.11 </tspan>
<tspan x="10" y="650">    │ ├── assert-plus@0.1.5 </tspan>
<tspan x="10" y="666">    │ └── ctype@0.5.3 </tspan>
<tspan x="10" y="682">    ├── json-stringify-safe@5.0.1 </tspan>
<tspan x="10" y="698">    ├── mime@1.2.11 </tspan>
<tspan x="10" y="714">    ├── node-uuid@1.4.8 </tspan>
<tspan x="10" y="730">    ├── oauth-sign@0.3.0 </tspan>
<tspan x="10" y="746">    ├── qs@0.6.6 </tspan>
<tspan x="10" y="762">    ├─┬ tough-cookie@2.3.2 </tspan>
<tspan x="10" y="778">    │ └── punycode@1.4.1 </tspan>
<tspan x="10" y="794">    └── tunnel-agent@0.3.0</tspan>
</text>
</svg>
